# xmcd
# 
# Track frame offsets:
#     150
#     13979
#     23620
#     38142
#     47530
#     57979
#     67659
#     84667
#     100697
#     111389
#     125848
#     141983
#     156339
#     171618
#     182921
#     198858
#     214287
# 
# Disc length: 3009
# 
# Revision: 2
# Processed by: cddbd v1.5.2PL0 Copyright (c) Steve Scherf et al.
# Submitted via: fre:ac v1.0.27
# 
DISCID=f70bbf11
DTITLE=Various Artist - The Very Best Of Country Volume 7
DYEAR=0
DGENRE=Country
TTITLE0=Dolly Parton - Send Me The Pillow You Dream On
TTITLE1=Jim Reeves - It Hurts So Much To See You
TTITLE2=Dobie Grey - Mississippi Rolling Stone
TTITLE3=Waylon Jennings - Heartaches By The Number
TTITLE4=Jim Ed Brown - Pop A Top
TTITLE5=Loretta Lynn - Don't Come Home A Drinkin'
TTITLE6=Kris Kristofferson - Loving Her Was Easy
TTITLE7=Willie Nelson - Blue Skies
TTITLE8=Roy Orbison - Falling
TTITLE9=Don Williams - Tulisa Time
TTITLE10=Alabama - Feels So Right
TTITLE11=Audrey Landers - Little River
TTITLE12=Roger Whittaker - Makin' Believe
TTITLE13=Johnny Cash - San Quentin
TTITLE14=Emmy Lou Harris - Lost His Love On Our Last Date
TTITLE15=Bellamy Brothers - I'd Lie For Your Love
TTITLE16=Ernest Tubb - Thanks A Lot
EXTD=
EXTT0=Dolly Parton
EXTT1=Jim Reeves
EXTT2=Dobie Grey
EXTT3=Waylon Jennings
EXTT4=Jim Ed Brown
EXTT5=Loretta Lynn
EXTT6=Kris Kristofferson
EXTT7=Willie Nelson
EXTT8=Roy Orbison
EXTT9=Don Williams
EXTT10=Alabama
EXTT11=Audrey Landers
EXTT12=Roger Whittaker
EXTT13=Johnny Cash
EXTT14=Emmy Lou Harris
EXTT15=Bellamy Brothers
EXTT16=Ernest Tubb
PLAYORDER=
